<?xml version="1.0" standalone="no"?>
<!DOCTYPE svg PUBLIC "-//W3C//DTD SVG 20010904//EN"
 "http://www.w3.org/TR/2001/REC-SVG-20010904/DTD/svg10.dtd">
<svg version="1.0" xmlns="http://www.w3.org/2000/svg"
 width="768.000000pt" height="768.000000pt" viewBox="0 0 768.000000 768.000000"
 preserveAspectRatio="xMidYMid meet">
<metadata>
Created by potrace 1.11, written by Peter Selinger 2001-2013
</metadata>
<g transform="translate(0.000000,768.000000) scale(0.100000,-0.100000)"
fill="#000000" stroke="none">
<path d="M3605 7264 c-16 -2 -79 -9 -140 -15 -373 -37 -810 -166 -1156 -339
-570 -287 -1075 -755 -1403 -1298 -262 -434 -418 -901 -478 -1427 -16 -142
-16 -548 0 -690 79 -689 325 -1281 757 -1820 97 -122 338 -365 460 -466 537
-442 1140 -698 1840 -781 162 -19 597 -16 760 6 658 86 1241 331 1745 735 131
105 363 333 479 471 423 504 685 1102 776 1770 22 157 30 552 16 710 -42 462
-151 846 -353 1250 -285 572 -708 1037 -1255 1383 -140 88 -455 244 -609 301
-242 89 -502 153 -775 191 -108 15 -592 29 -664 19z m645 -229 c501 -68 955
-237 1363 -509 196 -130 338 -246 502 -411 508 -507 821 -1141 922 -1865 22
-158 25 -621 5 -780 -140 -1108 -803 -2039 -1797 -2525 -322 -157 -641 -252
-1020 -301 -159 -21 -579 -24 -730 -6 -422 53 -751 153 -1115 338 -306 155
-530 316 -783 564 -284 276 -483 552 -657 912 -216 448 -313 874 -313 1383 -1
251 14 414 54 620 150 758 554 1420 1164 1910 103 83 344 241 477 313 373 202
801 331 1238 372 137 13 553 4 690 -15z"/>
<path d="M5764 5278 c-44 -26 -1355 -1231 -1369 -1258 -20 -39 -19 -108 3
-146 32 -58 1310 -1443 1337 -1450 40 -10 90 4 116 32 35 37 34 112 -2 151
-14 15 -295 322 -624 682 l-598 653 39 38 c22 20 302 277 624 569 322 293 595
546 608 563 50 69 11 164 -73 174 -23 2 -49 -1 -61 -8z"/>
<path d="M2645 5160 c-309 -33 -579 -158 -799 -370 -164 -158 -283 -345 -350
-551 -53 -164 -61 -223 -60 -434 1 -178 3 -197 31 -305 69 -263 187 -465 376
-647 150 -144 312 -242 511 -308 206 -69 174 -67 1176 -72 498 -3 924 -2 947
2 54 8 100 46 108 89 8 41 -15 100 -47 118 -18 10 -210 14 -983 18 l-960 5
-98 27 c-190 52 -372 156 -507 288 -444 435 -451 1143 -16 1585 174 176 398
291 635 325 125 19 322 8 446 -24 304 -79 576 -300 720 -586 82 -162 115 -307
115 -500 0 -249 -61 -440 -207 -655 -50 -73 -54 -84 -50 -123 5 -50 27 -77 73
-92 57 -19 96 1 153 78 107 142 199 356 238 549 24 120 24 366 0 486 -97 488
-436 877 -898 1031 -176 59 -386 84 -554 66z"/>
</g>
</svg>
